<svg xmlns="http://www.w3.org/2000/svg" width="1038" height="484" viewBox="0 0 1038 484" role="img" aria-label="Tail latency (p99)"><style>
    .gb-surface { fill: #fcfcfb; }
    .gb-title { font: 600 17px system-ui, -apple-system, "Segoe UI", sans-serif; fill: #0b0b0b; }
    .gb-subtitle { font: 400 12.5px system-ui, -apple-system, "Segoe UI", sans-serif; fill: #52514e; }
    .gb-panel-title { font: 600 12.5px system-ui, -apple-system, "Segoe UI", sans-serif; fill: #0b0b0b; }
    .gb-panel-note { font: 400 11px system-ui, -apple-system, "Segoe UI", sans-serif; fill: #898781; }
    .gb-row-label { font: 400 11.5px system-ui, -apple-system, "Segoe UI", sans-serif; fill: #52514e; text-anchor: end; }
    .gb-row-value { font: 400 11.5px system-ui, -apple-system, "Segoe UI", sans-serif; fill: #52514e; font-variant-numeric: tabular-nums; }
    .gb-row-missing { font: 400 11.5px system-ui, -apple-system, "Segoe UI", sans-serif; fill: #898781; }
    .gb-footnote { font: 400 10.5px system-ui, -apple-system, "Segoe UI", sans-serif; fill: #898781; }
    .gb-bar { fill: #898781; }
    .gb-bar.gb-accent { fill: #2a78d6; }
    @media (prefers-color-scheme: dark) {
      .gb-surface { fill: #1a1a19; }
      .gb-title { fill: #ffffff; }
      .gb-subtitle, .gb-row-label, .gb-row-value { fill: #c3c2b7; }
      .gb-panel-title { fill: #ffffff; }
      .gb-bar.gb-accent { fill: #3987e5; }
    }
  </style><rect width="1038" height="484" class="gb-surface"/><text x="24" y="34" class="gb-title">Tail latency (p99)</text><text x="24" y="56" class="gb-subtitle">99th percentile round-trip latency in milliseconds, lower is better.</text><text x="24" y="86" class="gb-panel-title">Static route</text><text x="24" y="101" class="gb-panel-note">GET /ping</text><text x="94" y="118" class="gb-row-label">atreugo</text><path d="M102 108 H186 a4 4 0 0 1 4 4 V116 a4 4 0 0 1 -4 4 H102 Z" class="gb-bar"/><text x="198" y="118" class="gb-row-value">1.53 ms</text><text x="94" y="142" class="gb-row-label">fiber</text><path d="M102 132 H188 a4 4 0 0 1 4 4 V140 a4 4 0 0 1 -4 4 H102 Z" class="gb-bar"/><text x="200" y="142" class="gb-row-value">1.57 ms</text><text x="94" y="166" class="gb-row-label">goichi</text><path d="M102 156 H203 a4 4 0 0 1 4 4 V164 a4 4 0 0 1 -4 4 H102 Z" class="gb-bar gb-accent"/><text x="215" y="166" class="gb-row-value">1.83 ms</text><text x="94" y="190" class="gb-row-label">gin</text><path d="M102 180 H254 a4 4 0 0 1 4 4 V188 a4 4 0 0 1 -4 4 H102 Z" class="gb-bar"/><text x="266" y="190" class="gb-row-value">2.70 ms</text><text x="94" y="214" class="gb-row-label">echo</text><path d="M102 204 H254 a4 4 0 0 1 4 4 V212 a4 4 0 0 1 -4 4 H102 Z" class="gb-bar"/><text x="266" y="214" class="gb-row-value">2.71 ms</text><text x="94" y="238" class="gb-row-label">chi</text><path d="M102 228 H260 a4 4 0 0 1 4 4 V236 a4 4 0 0 1 -4 4 H102 Z" class="gb-bar"/><text x="272" y="238" class="gb-row-value">2.80 ms</text><text x="354" y="86" class="gb-panel-title">One path parameter</text><text x="354" y="101" class="gb-panel-note">GET /user/4242</text><text x="424" y="118" class="gb-row-label">atreugo</text><path d="M432 108 H516 a4 4 0 0 1 4 4 V116 a4 4 0 0 1 -4 4 H432 Z" class="gb-bar"/><text x="528" y="118" class="gb-row-value">1.59 ms</text><text x="424" y="142" class="gb-row-label">fiber</text><path d="M432 132 H518 a4 4 0 0 1 4 4 V140 a4 4 0 0 1 -4 4 H432 Z" class="gb-bar"/><text x="530" y="142" class="gb-row-value">1.63 ms</text><text x="424" y="166" class="gb-row-label">goichi</text><path d="M432 156 H546 a4 4 0 0 1 4 4 V164 a4 4 0 0 1 -4 4 H432 Z" class="gb-bar gb-accent"/><text x="558" y="166" class="gb-row-value">2.14 ms</text><text x="424" y="190" class="gb-row-label">echo</text><path d="M432 180 H586 a4 4 0 0 1 4 4 V188 a4 4 0 0 1 -4 4 H432 Z" class="gb-bar"/><text x="598" y="190" class="gb-row-value">2.86 ms</text><text x="424" y="214" class="gb-row-label">gin</text><path d="M432 204 H586 a4 4 0 0 1 4 4 V212 a4 4 0 0 1 -4 4 H432 Z" class="gb-bar"/><text x="598" y="214" class="gb-row-value">2.86 ms</text><text x="424" y="238" class="gb-row-label">chi</text><path d="M432 228 H590 a4 4 0 0 1 4 4 V236 a4 4 0 0 1 -4 4 H432 Z" class="gb-bar"/><text x="602" y="238" class="gb-row-value">2.92 ms</text><text x="684" y="86" class="gb-panel-title">Three path parameters</text><text x="684" y="101" class="gb-panel-note">GET /user/4242/posts/77/comments/9</text><text x="754" y="118" class="gb-row-label">fiber</text><path d="M762 108 H852 a4 4 0 0 1 4 4 V116 a4 4 0 0 1 -4 4 H762 Z" class="gb-bar"/><text x="864" y="118" class="gb-row-value">1.74 ms</text><text x="754" y="142" class="gb-row-label">atreugo</text><path d="M762 132 H852 a4 4 0 0 1 4 4 V140 a4 4 0 0 1 -4 4 H762 Z" class="gb-bar"/><text x="864" y="142" class="gb-row-value">1.75 ms</text><text x="754" y="166" class="gb-row-label">goichi</text><path d="M762 156 H876 a4 4 0 0 1 4 4 V164 a4 4 0 0 1 -4 4 H762 Z" class="gb-bar gb-accent"/><text x="888" y="166" class="gb-row-value">2.18 ms</text><text x="754" y="190" class="gb-row-label">echo</text><path d="M762 180 H910 a4 4 0 0 1 4 4 V188 a4 4 0 0 1 -4 4 H762 Z" class="gb-bar"/><text x="922" y="190" class="gb-row-value">2.81 ms</text><text x="754" y="214" class="gb-row-label">gin</text><path d="M762 204 H911 a4 4 0 0 1 4 4 V212 a4 4 0 0 1 -4 4 H762 Z" class="gb-bar"/><text x="923" y="214" class="gb-row-value">2.83 ms</text><text x="754" y="238" class="gb-row-label">chi</text><path d="M762 228 H920 a4 4 0 0 1 4 4 V236 a4 4 0 0 1 -4 4 H762 Z" class="gb-bar"/><text x="932" y="238" class="gb-row-value">2.99 ms</text><text x="24" y="276" class="gb-panel-title">JSON response</text><text x="24" y="291" class="gb-panel-note">GET /json</text><text x="94" y="308" class="gb-row-label">atreugo</text><path d="M102 298 H187 a4 4 0 0 1 4 4 V306 a4 4 0 0 1 -4 4 H102 Z" class="gb-bar"/><text x="199" y="308" class="gb-row-value">1.68 ms</text><text x="94" y="332" class="gb-row-label">fiber</text><path d="M102 322 H193 a4 4 0 0 1 4 4 V330 a4 4 0 0 1 -4 4 H102 Z" class="gb-bar"/><text x="205" y="332" class="gb-row-value">1.78 ms</text><text x="94" y="356" class="gb-row-label">goichi</text><path d="M102 346 H204 a4 4 0 0 1 4 4 V354 a4 4 0 0 1 -4 4 H102 Z" class="gb-bar gb-accent"/><text x="216" y="356" class="gb-row-value">2.00 ms</text><text x="94" y="380" class="gb-row-label">gin</text><path d="M102 370 H251 a4 4 0 0 1 4 4 V378 a4 4 0 0 1 -4 4 H102 Z" class="gb-bar"/><text x="263" y="380" class="gb-row-value">2.88 ms</text><text x="94" y="404" class="gb-row-label">echo</text><path d="M102 394 H258 a4 4 0 0 1 4 4 V402 a4 4 0 0 1 -4 4 H102 Z" class="gb-bar"/><text x="270" y="404" class="gb-row-value">3.00 ms</text><text x="94" y="428" class="gb-row-label">chi</text><path d="M102 418 H260 a4 4 0 0 1 4 4 V426 a4 4 0 0 1 -4 4 H102 Z" class="gb-bar"/><text x="272" y="428" class="gb-row-value">3.03 ms</text><text x="354" y="276" class="gb-panel-title">JSON request body</text><text x="354" y="291" class="gb-panel-note">POST /echo</text><text x="424" y="308" class="gb-row-label">atreugo</text><path d="M432 298 H518 a4 4 0 0 1 4 4 V306 a4 4 0 0 1 -4 4 H432 Z" class="gb-bar"/><text x="530" y="308" class="gb-row-value">1.96 ms</text><text x="424" y="332" class="gb-row-label">fiber</text><path d="M432 322 H522 a4 4 0 0 1 4 4 V330 a4 4 0 0 1 -4 4 H432 Z" class="gb-bar"/><text x="534" y="332" class="gb-row-value">2.03 ms</text><text x="424" y="356" class="gb-row-label">goichi</text><path d="M432 346 H526 a4 4 0 0 1 4 4 V354 a4 4 0 0 1 -4 4 H432 Z" class="gb-bar gb-accent"/><text x="538" y="356" class="gb-row-value">2.12 ms</text><text x="424" y="380" class="gb-row-label">chi</text><path d="M432 370 H583 a4 4 0 0 1 4 4 V378 a4 4 0 0 1 -4 4 H432 Z" class="gb-bar"/><text x="595" y="380" class="gb-row-value">3.36 ms</text><text x="424" y="404" class="gb-row-label">echo</text><path d="M432 394 H584 a4 4 0 0 1 4 4 V402 a4 4 0 0 1 -4 4 H432 Z" class="gb-bar"/><text x="596" y="404" class="gb-row-value">3.38 ms</text><text x="424" y="428" class="gb-row-label">gin</text><path d="M432 418 H590 a4 4 0 0 1 4 4 V426 a4 4 0 0 1 -4 4 H432 Z" class="gb-bar"/><text x="602" y="428" class="gb-row-value">3.49 ms</text><text x="684" y="276" class="gb-panel-title">150-route table</text><text x="684" y="291" class="gb-panel-note">GET /api/v1/segment42/4242/detail</text><text x="754" y="308" class="gb-row-label">atreugo</text><path d="M762 298 H847 a4 4 0 0 1 4 4 V306 a4 4 0 0 1 -4 4 H762 Z" class="gb-bar"/><text x="859" y="308" class="gb-row-value">1.67 ms</text><text x="754" y="332" class="gb-row-label">fiber</text><path d="M762 322 H859 a4 4 0 0 1 4 4 V330 a4 4 0 0 1 -4 4 H762 Z" class="gb-bar"/><text x="871" y="332" class="gb-row-value">1.88 ms</text><text x="754" y="356" class="gb-row-label">goichi</text><path d="M762 346 H868 a4 4 0 0 1 4 4 V354 a4 4 0 0 1 -4 4 H762 Z" class="gb-bar gb-accent"/><text x="880" y="356" class="gb-row-value">2.06 ms</text><text x="754" y="380" class="gb-row-label">gin</text><path d="M762 370 H910 a4 4 0 0 1 4 4 V378 a4 4 0 0 1 -4 4 H762 Z" class="gb-bar"/><text x="922" y="380" class="gb-row-value">2.83 ms</text><text x="754" y="404" class="gb-row-label">echo</text><path d="M762 394 H911 a4 4 0 0 1 4 4 V402 a4 4 0 0 1 -4 4 H762 Z" class="gb-bar"/><text x="923" y="404" class="gb-row-value">2.86 ms</text><text x="754" y="428" class="gb-row-label">chi</text><path d="M762 418 H920 a4 4 0 0 1 4 4 V426 a4 4 0 0 1 -4 4 H762 Z" class="gb-bar"/><text x="932" y="428" class="gb-row-value">3.01 ms</text><text x="24" y="472" class="gb-footnote">goichi is highlighted; every other framework is grey. Bars are labelled with their own value.</text></svg>