<svg xmlns="http://www.w3.org/2000/svg" width="1038" height="484" viewBox="0 0 1038 484" role="img" aria-label="Allocations per request"><style>
    .gb-surface { fill: #fcfcfb; }
    .gb-title { font: 600 17px system-ui, -apple-system, "Segoe UI", sans-serif; fill: #0b0b0b; }
    .gb-subtitle { font: 400 12.5px system-ui, -apple-system, "Segoe UI", sans-serif; fill: #52514e; }
    .gb-panel-title { font: 600 12.5px system-ui, -apple-system, "Segoe UI", sans-serif; fill: #0b0b0b; }
    .gb-panel-note { font: 400 11px system-ui, -apple-system, "Segoe UI", sans-serif; fill: #898781; }
    .gb-row-label { font: 400 11.5px system-ui, -apple-system, "Segoe UI", sans-serif; fill: #52514e; text-anchor: end; }
    .gb-row-value { font: 400 11.5px system-ui, -apple-system, "Segoe UI", sans-serif; fill: #52514e; font-variant-numeric: tabular-nums; }
    .gb-row-missing { font: 400 11.5px system-ui, -apple-system, "Segoe UI", sans-serif; fill: #898781; }
    .gb-footnote { font: 400 10.5px system-ui, -apple-system, "Segoe UI", sans-serif; fill: #898781; }
    .gb-bar { fill: #898781; }
    .gb-bar.gb-accent { fill: #2a78d6; }
    @media (prefers-color-scheme: dark) {
      .gb-surface { fill: #1a1a19; }
      .gb-title { fill: #ffffff; }
      .gb-subtitle, .gb-row-label, .gb-row-value { fill: #c3c2b7; }
      .gb-panel-title { fill: #ffffff; }
      .gb-bar.gb-accent { fill: #3987e5; }
    }
  </style><rect width="1038" height="484" class="gb-surface"/><text x="24" y="34" class="gb-title">Allocations per request</text><text x="24" y="56" class="gb-subtitle">Heap allocations per request handled in-process, lower is better. The number that predicts how a service behaves under sustained load.</text><text x="24" y="86" class="gb-panel-title">Static route</text><text x="24" y="101" class="gb-panel-note">GET /ping</text><text x="94" y="118" class="gb-row-label">fiber</text><rect x="102" y="108" width="2" height="12" class="gb-bar"/><text x="112" y="118" class="gb-row-value">0</text><text x="94" y="142" class="gb-row-label">gin</text><path d="M102 132 H138 a4 4 0 0 1 4 4 V140 a4 4 0 0 1 -4 4 H102 Z" class="gb-bar"/><text x="150" y="142" class="gb-row-value">1</text><text x="94" y="166" class="gb-row-label">goichi</text><path d="M102 156 H179 a4 4 0 0 1 4 4 V164 a4 4 0 0 1 -4 4 H102 Z" class="gb-bar gb-accent"/><text x="191" y="166" class="gb-row-value">2</text><text x="94" y="190" class="gb-row-label">echo</text><path d="M102 180 H179 a4 4 0 0 1 4 4 V188 a4 4 0 0 1 -4 4 H102 Z" class="gb-bar"/><text x="191" y="190" class="gb-row-value">2</text><text x="94" y="214" class="gb-row-label">chi</text><path d="M102 204 H260 a4 4 0 0 1 4 4 V212 a4 4 0 0 1 -4 4 H102 Z" class="gb-bar"/><text x="272" y="214" class="gb-row-value">4</text><text x="94" y="238" class="gb-row-label">atreugo</text><text x="102" y="238" class="gb-row-missing">n/a</text><text x="354" y="86" class="gb-panel-title">One path parameter</text><text x="354" y="101" class="gb-panel-note">GET /user/4242</text><text x="424" y="118" class="gb-row-label">fiber</text><path d="M432 108 H482 a4 4 0 0 1 4 4 V116 a4 4 0 0 1 -4 4 H432 Z" class="gb-bar"/><text x="494" y="118" class="gb-row-value">2</text><text x="424" y="142" class="gb-row-label">echo</text><path d="M432 132 H509 a4 4 0 0 1 4 4 V140 a4 4 0 0 1 -4 4 H432 Z" class="gb-bar"/><text x="521" y="142" class="gb-row-value">3</text><text x="424" y="166" class="gb-row-label">gin</text><path d="M432 156 H509 a4 4 0 0 1 4 4 V164 a4 4 0 0 1 -4 4 H432 Z" class="gb-bar"/><text x="521" y="166" class="gb-row-value">3</text><text x="424" y="190" class="gb-row-label">goichi</text><path d="M432 180 H563 a4 4 0 0 1 4 4 V188 a4 4 0 0 1 -4 4 H432 Z" class="gb-bar gb-accent"/><text x="575" y="190" class="gb-row-value">5</text><text x="424" y="214" class="gb-row-label">chi</text><path d="M432 204 H590 a4 4 0 0 1 4 4 V212 a4 4 0 0 1 -4 4 H432 Z" class="gb-bar"/><text x="602" y="214" class="gb-row-value">6</text><text x="424" y="238" class="gb-row-label">atreugo</text><text x="432" y="238" class="gb-row-missing">n/a</text><text x="684" y="86" class="gb-panel-title">Three path parameters</text><text x="684" y="101" class="gb-panel-note">GET /user/4242/posts/77/comments/9</text><text x="754" y="118" class="gb-row-label">fiber</text><path d="M762 108 H812 a4 4 0 0 1 4 4 V116 a4 4 0 0 1 -4 4 H762 Z" class="gb-bar"/><text x="824" y="118" class="gb-row-value">2</text><text x="754" y="142" class="gb-row-label">echo</text><path d="M762 132 H839 a4 4 0 0 1 4 4 V140 a4 4 0 0 1 -4 4 H762 Z" class="gb-bar"/><text x="851" y="142" class="gb-row-value">3</text><text x="754" y="166" class="gb-row-label">gin</text><path d="M762 156 H839 a4 4 0 0 1 4 4 V164 a4 4 0 0 1 -4 4 H762 Z" class="gb-bar"/><text x="851" y="166" class="gb-row-value">3</text><text x="754" y="190" class="gb-row-label">goichi</text><path d="M762 180 H893 a4 4 0 0 1 4 4 V188 a4 4 0 0 1 -4 4 H762 Z" class="gb-bar gb-accent"/><text x="905" y="190" class="gb-row-value">5</text><text x="754" y="214" class="gb-row-label">chi</text><path d="M762 204 H920 a4 4 0 0 1 4 4 V212 a4 4 0 0 1 -4 4 H762 Z" class="gb-bar"/><text x="932" y="214" class="gb-row-value">6</text><text x="754" y="238" class="gb-row-label">atreugo</text><text x="762" y="238" class="gb-row-missing">n/a</text><text x="24" y="276" class="gb-panel-title">JSON response</text><text x="24" y="291" class="gb-panel-note">GET /json</text><text x="94" y="308" class="gb-row-label">fiber</text><path d="M102 298 H179 a4 4 0 0 1 4 4 V306 a4 4 0 0 1 -4 4 H102 Z" class="gb-bar"/><text x="191" y="308" class="gb-row-value">2</text><text x="94" y="332" class="gb-row-label">goichi</text><path d="M102 322 H219 a4 4 0 0 1 4 4 V330 a4 4 0 0 1 -4 4 H102 Z" class="gb-bar gb-accent"/><text x="231" y="332" class="gb-row-value">3</text><text x="94" y="356" class="gb-row-label">echo</text><path d="M102 346 H219 a4 4 0 0 1 4 4 V354 a4 4 0 0 1 -4 4 H102 Z" class="gb-bar"/><text x="231" y="356" class="gb-row-value">3</text><text x="94" y="380" class="gb-row-label">gin</text><path d="M102 370 H219 a4 4 0 0 1 4 4 V378 a4 4 0 0 1 -4 4 H102 Z" class="gb-bar"/><text x="231" y="380" class="gb-row-value">3</text><text x="94" y="404" class="gb-row-label">chi</text><path d="M102 394 H260 a4 4 0 0 1 4 4 V402 a4 4 0 0 1 -4 4 H102 Z" class="gb-bar"/><text x="272" y="404" class="gb-row-value">4</text><text x="94" y="428" class="gb-row-label">atreugo</text><text x="102" y="428" class="gb-row-missing">n/a</text><text x="354" y="276" class="gb-panel-title">JSON request body</text><text x="354" y="291" class="gb-panel-note">POST /echo</text><text x="424" y="308" class="gb-row-label">goichi</text><path d="M432 298 H482 a4 4 0 0 1 4 4 V306 a4 4 0 0 1 -4 4 H432 Z" class="gb-bar gb-accent"/><text x="494" y="308" class="gb-row-value">5</text><text x="424" y="332" class="gb-row-label">fiber</text><path d="M432 322 H525 a4 4 0 0 1 4 4 V330 a4 4 0 0 1 -4 4 H432 Z" class="gb-bar"/><text x="537" y="332" class="gb-row-value">9</text><text x="424" y="356" class="gb-row-label">echo</text><path d="M432 346 H579 a4 4 0 0 1 4 4 V354 a4 4 0 0 1 -4 4 H432 Z" class="gb-bar"/><text x="591" y="356" class="gb-row-value">14</text><text x="424" y="380" class="gb-row-label">gin</text><path d="M432 370 H579 a4 4 0 0 1 4 4 V378 a4 4 0 0 1 -4 4 H432 Z" class="gb-bar"/><text x="591" y="380" class="gb-row-value">14</text><text x="424" y="404" class="gb-row-label">chi</text><path d="M432 394 H590 a4 4 0 0 1 4 4 V402 a4 4 0 0 1 -4 4 H432 Z" class="gb-bar"/><text x="602" y="404" class="gb-row-value">15</text><text x="424" y="428" class="gb-row-label">atreugo</text><text x="432" y="428" class="gb-row-missing">n/a</text><text x="684" y="276" class="gb-panel-title">150-route table</text><text x="684" y="291" class="gb-panel-note">GET /api/v1/segment42/4242/detail</text><text x="754" y="308" class="gb-row-label">fiber</text><path d="M762 298 H812 a4 4 0 0 1 4 4 V306 a4 4 0 0 1 -4 4 H762 Z" class="gb-bar"/><text x="824" y="308" class="gb-row-value">2</text><text x="754" y="332" class="gb-row-label">echo</text><path d="M762 322 H839 a4 4 0 0 1 4 4 V330 a4 4 0 0 1 -4 4 H762 Z" class="gb-bar"/><text x="851" y="332" class="gb-row-value">3</text><text x="754" y="356" class="gb-row-label">gin</text><path d="M762 346 H839 a4 4 0 0 1 4 4 V354 a4 4 0 0 1 -4 4 H762 Z" class="gb-bar"/><text x="851" y="356" class="gb-row-value">3</text><text x="754" y="380" class="gb-row-label">goichi</text><path d="M762 370 H893 a4 4 0 0 1 4 4 V378 a4 4 0 0 1 -4 4 H762 Z" class="gb-bar gb-accent"/><text x="905" y="380" class="gb-row-value">5</text><text x="754" y="404" class="gb-row-label">chi</text><path d="M762 394 H920 a4 4 0 0 1 4 4 V402 a4 4 0 0 1 -4 4 H762 Z" class="gb-bar"/><text x="932" y="404" class="gb-row-value">6</text><text x="754" y="428" class="gb-row-label">atreugo</text><text x="762" y="428" class="gb-row-missing">n/a</text><text x="24" y="472" class="gb-footnote">goichi is highlighted; every other framework is grey. Bars are labelled with their own value.</text></svg>